<?xml version="1.0" encoding="UTF-8"?>
<svg width="200" height="150" viewBox="0 0 200 150" xmlns="http://www.w3.org/2000/svg">
  <!-- Background -->
  <rect width="200" height="150" fill="#f8f9fa"/>
  
  <!-- Title -->
  <text x="100" y="20" font-family="Arial" font-size="12" font-weight="bold" 
        fill="#333" text-anchor="middle">Success Stories Slider</text>
  
  <!-- Card 1 -->
  <g transform="translate(10, 30)">
    <rect width="50" height="70" fill="#fff" stroke="#dee2e6" stroke-width="1" rx="4"/>
    <rect x="5" y="5" width="40" height="30" fill="#e9ecef" rx="2"/>
    <rect x="5" y="40" width="30" height="3" fill="#dee2e6" rx="1"/>
    <rect x="5" y="47" width="40" height="3" fill="#dee2e6" rx="1"/>
    <rect x="5" y="54" width="35" height="3" fill="#dee2e6" rx="1"/>
    <rect x="5" y="63" width="20" height="5" fill="#3498db" rx="2"/>
  </g>
  
  <!-- Card 2 -->
  <g transform="translate(70, 30)">
    <rect width="50" height="70" fill="#fff" stroke="#dee2e6" stroke-width="1" rx="4"/>
    <rect x="5" y="5" width="40" height="30" fill="#e9ecef" rx="2"/>
    <rect x="5" y="40" width="30" height="3" fill="#dee2e6" rx="1"/>
    <rect x="5" y="47" width="40" height="3" fill="#dee2e6" rx="1"/>
    <rect x="5" y="54" width="35" height="3" fill="#dee2e6" rx="1"/>
    <rect x="5" y="63" width="20" height="5" fill="#3498db" rx="2"/>
  </g>
  
  <!-- Card 3 -->
  <g transform="translate(130, 30)">
    <rect width="50" height="70" fill="#fff" stroke="#dee2e6" stroke-width="1" rx="4"/>
    <rect x="5" y="5" width="40" height="30" fill="#e9ecef" rx="2"/>
    <rect x="5" y="40" width="30" height="3" fill="#dee2e6" rx="1"/>
    <rect x="5" y="47" width="40" height="3" fill="#dee2e6" rx="1"/>
    <rect x="5" y="54" width="35" height="3" fill="#dee2e6" rx="1"/>
    <rect x="5" y="63" width="20" height="5" fill="#3498db" rx="2"/>
  </g>
  
  <!-- Left Arrow -->
  <circle cx="5" cy="65" r="8" fill="#3498db" opacity="0.8"/>
  <path d="M 7 65 L 3 65 L 5 63 M 3 65 L 5 67" stroke="#fff" stroke-width="1.5" fill="none"/>
  
  <!-- Right Arrow -->
  <circle cx="195" cy="65" r="8" fill="#3498db" opacity="0.8"/>
  <path d="M 193 65 L 197 65 L 195 63 M 197 65 L 195 67" stroke="#fff" stroke-width="1.5" fill="none"/>
  
  <!-- Filter Buttons -->
  <rect x="60" y="110" width="25" height="12" fill="#3498db" rx="2"/>
  <text x="72.5" y="119" font-family="Arial" font-size="8" fill="#fff" text-anchor="middle">All</text>
  
  <rect x="90" y="110" width="35" height="12" fill="#fff" stroke="#3498db" stroke-width="1" rx="2"/>
  <text x="107.5" y="119" font-family="Arial" font-size="8" fill="#3498db" text-anchor="middle">Tech</text>
  
  <rect x="130" y="110" width="45" height="12" fill="#fff" stroke="#3498db" stroke-width="1" rx="2"/>
  <text x="152.5" y="119" font-family="Arial" font-size="8" fill="#3498db" text-anchor="middle">Finance</text>
</svg>

