<?xml version="1.0" encoding="UTF-8"?>
<svg width="128" height="128" viewBox="0 0 128 128" xmlns="http://www.w3.org/2000/svg">
  <!-- Background -->
  <rect width="128" height="128" fill="#3498db" rx="16"/>
  
  <!-- Trophy/Success Icon -->
  <g transform="translate(24, 20)">
    <!-- Trophy Cup -->
    <path d="M 20 15 L 20 25 Q 20 35 30 40 L 30 50 L 25 50 L 25 55 L 55 55 L 55 50 L 50 50 L 50 40 Q 60 35 60 25 L 60 15 Z" 
          fill="#FFD700" stroke="#FFA500" stroke-width="2"/>
    
    <!-- Trophy Handles -->
    <path d="M 20 20 Q 10 20 10 30 Q 10 35 15 35 L 20 35" 
          fill="none" stroke="#FFD700" stroke-width="3"/>
    <path d="M 60 20 Q 70 20 70 30 Q 70 35 65 35 L 60 35" 
          fill="none" stroke="#FFD700" stroke-width="3"/>
    
    <!-- Trophy Base -->
    <rect x="22" y="55" width="36" height="8" fill="#FFA500" rx="2"/>
    
    <!-- Star on Trophy -->
    <path d="M 40 25 L 42 30 L 47 30 L 43 33 L 45 38 L 40 35 L 35 38 L 37 33 L 33 30 L 38 30 Z" 
          fill="#FFF" opacity="0.9"/>
  </g>
  
  <!-- Text -->
  <text x="64" y="100" font-family="Arial, sans-serif" font-size="16" font-weight="bold" 
        fill="#FFF" text-anchor="middle">SUCCESS</text>
  <text x="64" y="116" font-family="Arial, sans-serif" font-size="12" 
        fill="#FFF" text-anchor="middle" opacity="0.9">STORIES</text>
</svg>

